<svg xmlns="http://www.w3.org/2000/svg" viewBox="0 0 180 180" fill="none">
  <!-- Background with rounded corners for app icon -->
  <rect width="180" height="180" rx="40" fill="#1e293b"/>

  <!-- Centered songbird - scaled from 48x48 to fit 180x180 with padding -->
  <g transform="translate(30, 30) scale(2.5)">
    <!-- Body - rounded, friendly shape -->
    <ellipse cx="24" cy="26" rx="12" ry="10" fill="#3b82f6"/>

    <!-- Belly/chest highlight -->
    <ellipse cx="24" cy="28" rx="8" ry="6" fill="#60a5fa"/>

    <!-- Head -->
    <circle cx="32" cy="18" r="7" fill="#3b82f6"/>

    <!-- Eye ring -->
    <circle cx="34" cy="17" r="3" fill="white"/>
    <circle cx="34.5" cy="16.5" r="1.5" fill="#1e293b"/>
    <circle cx="35" cy="16" r="0.5" fill="white"/>

    <!-- Beak -->
    <path d="M38 18 L44 16 L38 20 Z" fill="#f97316"/>

    <!-- Wing -->
    <path d="M14 24 Q10 20 14 16 Q18 18 20 22 Q22 26 18 28 Q14 28 14 24Z" fill="#1d4ed8"/>
    <path d="M16 22 Q14 20 16 18 Q18 19 19 21 Q20 23 18 24 Q16 24 16 22Z" fill="#2563eb"/>

    <!-- Tail feathers - connected to body at x=12-14 -->
    <path d="M14 28 Q8 26 4 30 Q8 30 14 32Z" fill="#1d4ed8"/>
    <path d="M13 30 Q6 30 3 34 Q8 33 14 33Z" fill="#3b82f6"/>
    <path d="M13 32 Q7 34 4 38 Q9 36 14 34Z" fill="#1d4ed8"/>

    <!-- Small crown/crest feathers -->
    <path d="M30 12 Q31 8 34 10 Q32 12 30 12Z" fill="#1d4ed8"/>
    <path d="M32 11 Q34 7 37 9 Q35 11 32 11Z" fill="#3b82f6"/>

    <!-- Subtle signal arc (connectivity) -->
    <path d="M40 10 Q44 8 46 12" stroke="#3b82f6" stroke-width="1.5" stroke-linecap="round" fill="none" opacity="0.5"/>
    <path d="M42 8 Q47 5 48 10" stroke="#3b82f6" stroke-width="1.5" stroke-linecap="round" fill="none" opacity="0.3"/>

    <!-- Feet/perch line -->
    <line x1="20" y1="36" x2="28" y2="36" stroke="#64748b" stroke-width="1.5" stroke-linecap="round"/>
    <path d="M22 36 L21 38 M22 36 L23 38" stroke="#f97316" stroke-width="1" stroke-linecap="round"/>
    <path d="M26 36 L25 38 M26 36 L27 38" stroke="#f97316" stroke-width="1" stroke-linecap="round"/>
  </g>
</svg>
