<svg xmlns="http://www.w3.org/2000/svg" viewBox="0 0 32 32" fill="none">
  <!-- Simplified songbird favicon -->

  <!-- Body -->
  <ellipse cx="16" cy="18" rx="8" ry="7" fill="#3b82f6"/>

  <!-- Belly highlight -->
  <ellipse cx="16" cy="19" rx="5" ry="4" fill="#60a5fa"/>

  <!-- Head -->
  <circle cx="22" cy="12" r="5" fill="#3b82f6"/>

  <!-- Eye -->
  <circle cx="23.5" cy="11" r="2" fill="white"/>
  <circle cx="24" cy="10.5" r="1" fill="#1e293b"/>

  <!-- Beak -->
  <path d="M26 12 L30 11 L26 14 Z" fill="#f97316"/>

  <!-- Wing -->
  <path d="M10 16 Q8 14 10 12 Q12 13 13 15 Q14 17 12 18 Q10 18 10 16Z" fill="#1d4ed8"/>

  <!-- Tail - connected to body -->
  <path d="M9 20 Q5 19 3 22 Q6 21 9 22Z" fill="#1d4ed8"/>
  <path d="M9 22 Q5 23 3 26 Q6 24 10 23Z" fill="#3b82f6"/>

  <!-- Perch line -->
  <line x1="12" y1="25" x2="20" y2="25" stroke="#64748b" stroke-width="1.5" stroke-linecap="round"/>
</svg>
